# xmcd
#
# Track frame offsets:
#	150
#	15687
#	30201
#	44926
#	62269
#	76746
#	89348
#	105000
#	118798
#	127408
#
# Disc length: 1906 seconds
#
# Revision: 3
# Processed by: cddbd v1.5.1PL0 Copyright (c) Steve Scherf et al.
# Submitted via: EasyCDDAExtractor 7.0.6.1
#
DISCID=7507700a
DTITLE=Various Artist - ±¡·Nµ²
DYEAR=2003
DGENRE=Pop
TTITLE0=³¯¼z¼_ - ©ú¤é¦³©ú¤Ñ
TTITLE1=³¯¼z¼_ - ¬_¼w²ú®LµÓ¬ï¹Lªº¾c
TTITLE2=³¯¼z¼_ - ±¡·Nµ²
TTITLE3=³¯¼z¼_ - ¨ì³B¯d±¡
TTITLE4=³¯¼z¼_ Ãö¤ß§° - ©àªá·S¯ó
TTITLE5=³¯¼z¼_ - ¿½¨¹»P§Ú
TTITLE6=³¯¼z¼_ - Gloomy Sunday
TTITLE7=³¯¼z¼_ - §'d¶Ë¬Ý³z®É
TTITLE8=³¯¼z¼_ - Tomorrow is another day
TTITLE9=³¯¼z¼_ - ¶Ì¤kªº·s¦ç
EXTD=YEAR: 2003
EXTT0=
EXTT1=
EXTT2=
EXTT3=
EXTT4=
EXTT5=
EXTT6=
EXTT7=
EXTT8=
EXTT9=
PLAYORDER=
